<svg width="60" height="60" viewBox="0 0 200 200" xmlns="http://www.w3.org/2000/svg">
  <!-- Background circle for contrast -->
  <circle cx="100" cy="100" r="95" fill="#ffffff" stroke="#026937" stroke-width="2"/>
  
  <!-- Crossed swords -->
  <g stroke="#1a365d" stroke-width="4" fill="#1a365d">
    <!-- Left sword -->
    <line x1="60" y1="140" x2="140" y2="60" stroke-width="3"/>
    <circle cx="60" cy="140" r="8" fill="#026937"/>
    <rect x="135" y="55" width="10" height="10" fill="#026937" transform="rotate(45 140 60)"/>
    
    <!-- Right sword -->
    <line x1="140" y1="140" x2="60" y2="60" stroke-width="3"/>
    <circle cx="140" cy="140" r="8" fill="#026937"/>
    <rect x="55" y="55" width="10" height="10" fill="#026937" transform="rotate(-45 60 60)"/>
    
    <!-- Center vertical sword -->
    <line x1="100" y1="40" x2="100" y2="160" stroke-width="4"/>
    <circle cx="100" cy="160" r="10" fill="#026937"/>
    <rect x="95" y="35" width="10" height="10" fill="#026937"/>
  </g>
  
  <!-- Ivy leaves -->
  <g fill="#059e52">
    <!-- Left ivy leaves -->
    <path d="M 70 90 Q 60 80 65 70 Q 75 75 70 90 Z"/>
    <path d="M 75 85 Q 65 75 70 65 Q 80 70 75 85 Z"/>
    
    <!-- Right ivy leaves -->
    <path d="M 130 90 Q 140 80 135 70 Q 125 75 130 90 Z"/>
    <path d="M 125 85 Q 135 75 130 65 Q 120 70 125 85 Z"/>
    
    <!-- Bottom ivy leaves -->
    <path d="M 90 130 Q 80 140 85 150 Q 95 145 90 130 Z"/>
    <path d="M 110 130 Q 120 140 115 150 Q 105 145 110 130 Z"/>
  </g>
  
  <!-- Ivy stems -->
  <g stroke="#026937" stroke-width="2" fill="none">
    <path d="M 70 90 Q 85 95 100 100"/>
    <path d="M 130 90 Q 115 95 100 100"/>
    <path d="M 90 130 Q 95 115 100 100"/>
    <path d="M 110 130 Q 105 115 100 100"/>
  </g>
</svg> 